<?xml version="1.0" encoding="utf-8"?>
<svg width="323.2622081431129" height="287.7578125" viewBox="0 0 260 231.44379195998505" class="css-1j8o68f" xmlns="http://www.w3.org/2000/svg">
  <g id="SvgjsG6628" featurekey="symbolFeature-0" transform="matrix(1.2667848181605479,0,0,1.2667848181605479,67.16012604749636,24)" fill="#111111">
    <g xmlns="http://www.w3.org/2000/svg">
      <path d="M92.115,16.646c-0.541-0.127-1.14-0.271-1.793-0.431c-2.88-0.708-6.786-1.746-11.191-3.126   c-0.555-0.174-1.117-0.353-1.687-0.538C68.639,9.696,58.204,5.539,50.082,0C32.712,11.713,4.61,17.369,4.61,17.369   S4.694,41.41,6.201,50.951c1.435,9.08,5.127,16.719,9.795,23.048c0.315,0.428,0.635,0.851,0.959,1.266   c2.141,2.748,4.459,5.235,6.841,7.476c0.385,0.362,0.77,0.719,1.158,1.066c12,10.809,25.127,15.476,25.127,15.476   S88.322,85.631,93.8,50.951c1.508-9.542,1.591-33.582,1.591-33.582S94.183,17.129,92.115,16.646z M91.083,50.521   c-1.179,7.459-4.077,14.507-8.617,20.946c-3.669,5.206-8.416,10.037-14.109,14.362c-8.006,6.08-15.686,9.453-18.276,10.501   c-2.603-1.046-10.315-4.421-18.357-10.504c-1.691-1.279-3.297-2.605-4.819-3.97c-0.393-0.351-0.78-0.705-1.161-1.062   c-2.541-2.384-4.821-4.888-6.827-7.493c-0.324-0.421-0.639-0.846-0.95-1.272c-0.136-0.188-0.275-0.375-0.409-0.565   c-4.555-6.438-7.461-13.484-8.64-20.942c-1.192-7.55-1.475-24.8-1.539-30.941c2.809-0.643,8.027-1.923,14.274-3.878   c11.615-3.635,21.164-7.805,28.42-12.41c6.583,4.224,15.037,8.063,25.191,11.439c0.552,0.184,1.112,0.366,1.675,0.547   c0.493,0.158,0.988,0.317,1.489,0.473c3.657,1.144,6.957,2.05,9.625,2.732c0.63,0.161,1.224,0.309,1.778,0.446   c1.088,0.266,2.027,0.485,2.79,0.657C92.558,25.735,92.275,42.975,91.083,50.521z"/>
      <path d="M85.14,21.398c-2.679-0.644-6.66-1.682-11.187-3.131c-0.552-0.176-1.11-0.359-1.676-0.548   C65.041,15.306,56.71,11.894,50.15,7.421c-14.773,9.961-38.673,14.772-38.673,14.772s0.07,20.447,1.353,28.561   c1.154,7.306,4.026,13.513,7.693,18.719c0.307,0.437,0.62,0.864,0.937,1.286c2.106,2.798,4.434,5.29,6.827,7.493   c0.389,0.356,0.78,0.707,1.171,1.05C39.474,88.065,50.15,91.86,50.15,91.86s32.524-11.61,37.184-41.106   c1.282-8.114,1.352-28.561,1.352-28.561s-0.63-0.125-1.742-0.375C86.438,21.705,85.833,21.564,85.14,21.398z M87.105,23.466   c-0.042,4.588-0.261,20.3-1.325,27.043c-1.021,6.471-3.537,12.58-7.475,18.16c-3.172,4.495-7.271,8.664-12.185,12.39   c-7.185,5.449-14.056,8.362-15.973,9.12c-1.916-0.751-8.759-3.638-15.965-9.065c-1.256-0.947-2.46-1.923-3.61-2.925   c-0.398-0.349-0.788-0.699-1.172-1.052c-2.578-2.367-4.859-4.876-6.818-7.501c-0.229-0.307-0.455-0.614-0.675-0.925   c-0.087-0.123-0.169-0.247-0.255-0.368c-3.821-5.493-6.269-11.489-7.271-17.834c-1.066-6.745-1.283-22.464-1.325-27.047   c2.169-0.483,6.904-1.609,12.686-3.418c10.038-3.142,18.24-6.75,24.402-10.736c5.437,3.556,12.448,6.794,20.889,9.654   c0.55,0.187,1.106,0.371,1.669,0.554c0.588,0.191,1.183,0.382,1.785,0.57c3.673,1.148,6.919,2.015,9.348,2.615   c0.66,0.163,1.262,0.307,1.793,0.431C86.205,23.265,86.699,23.376,87.105,23.466z"/>
      <path d="M61.838,40.458h-0.983v-3.645c0-5.891-4.793-10.685-10.685-10.685c-5.891,0-10.684,4.793-10.684,10.685v3.645h-0.982   c-1.954,0-3.538,1.583-3.538,3.537v3.666h30.41v-3.666C65.375,42.042,63.79,40.458,61.838,40.458z M56.531,40.458H43.809v-3.645   c0-3.508,2.854-6.361,6.361-6.361c3.508,0,6.362,2.854,6.362,6.361V40.458z"/>
      <rect x="34.965" y="49.233" width="30.41" height="7.785"/>
      <path d="M34.965,61.589c0,1.954,1.584,3.538,3.538,3.538h23.335c1.952,0,3.537-1.584,3.537-3.538V58.59h-30.41V61.589z"/>
    </g>
  </g>
  <g id="SvgjsG6629" featurekey="nameFeature-0" transform="matrix(1.208089198333937,0,0,1.208089198333937,-1.6744123939009339,160.2438165524221)" fill="#111111">
    <path d="M13.027 40.39063 c-6.0547 0 -10.781 -2.9102 -11.641 -8.2031 l6.0547 -1.3867 c0.39063 3.1641 2.7148 4.8047 5.8203 4.8047 c2.3828 0 4.2773 -1.0547 4.2578 -3.4375 c-0.019531 -2.6563 -3.1445 -3.4961 -6.582 -4.5508 c-4.1406 -1.2891 -8.5742 -2.8125 -8.5742 -8.0078 c0 -5.2539 4.2969 -8.2227 9.9609 -8.2227 c4.9609 0 9.9609 2.0117 11.094 7.4219 l-5.6641 1.4063 c-0.52734 -2.8125 -2.4219 -4.043 -5.0781 -4.043 c-2.3633 0 -4.375 0.97656 -4.375 3.3008 c0 2.168 2.7734 2.8906 5.9766 3.8477 c4.2578 1.2891 9.2969 2.9297 9.2969 8.5547 c0 5.9961 -5.0195 8.5156 -10.547 8.5156 z M50.6246875 11.777000000000001 l5.8594 0 l0 28.223 l-5.8594 0 l0 -11.602 l-11.934 0 l0 11.602 l-5.8594 0 l0 -28.223 l5.8594 0 l0 11.523 l11.934 0 l0 -11.523 z M86.523375 40 l-2.0508 -5.8203 l-11.855 0 l-2.0508 5.8203 l-5.9961 0 l10.391 -28.223 l7.168 0 l10.391 28.223 l-5.9961 0 z M74.336375 29.277 l8.418 0 l-4.1992 -11.973 z M118.398125 11.777000000000001 l5.8594 0 l0 28.223 l-5.8594 0 l0 -11.602 l-11.934 0 l0 11.602 l-5.8594 0 l0 -28.223 l5.8594 0 l0 11.523 l11.934 0 l0 -11.523 z M150.5668125 25.098 c3.1836 0.87891 5.3125 2.9688 5.3125 6.9922 c0 4.7656 -2.8906 7.9102 -8.8477 7.9102 l-11.621 0 l0 -28.223 l9.1406 0 c6.0938 0 9.2969 2.9297 9.2969 7.7344 c0 2.4805 -1.0742 4.5117 -3.2813 5.5859 z M144.6098125 16.641 l-3.5547 0 l0 6.6406 l3.8086 0 c2.5 0 3.5938 -1.4844 3.5938 -3.3984 c0 -1.875 -1.2305 -3.2422 -3.8477 -3.2422 z M145.9378125 34.9805 c3.1641 0 4.2578 -1.6992 4.2578 -3.5352 c0 -1.875 -1.0742 -3.6523 -4.375 -3.6523 l-4.7656 0 l0 7.1875 l4.8828 0 z M183.8280625 40 l-2.0508 -5.8203 l-11.855 0 l-2.0508 5.8203 l-5.9961 0 l10.391 -28.223 l7.168 0 l10.391 28.223 l-5.9961 0 z M171.6410625 29.277 l8.418 0 l-4.1992 -11.973 z M203.0469125 34.8242 l13.555 0 l0 5.1758 l-20.566 0 l0 -4.6289 l13.379 -18.438 l-13.359 0 l0 -5.1563 l20.293 0 l0 4.6289 z"/>
  </g>
  <g id="SvgjsG6630" featurekey="sloganFeature-0" transform="matrix(0.6061719498175719,0,0,0.6061719498175719,48.46032341510965,219.6234389385424)" fill="#111111">
    <path d="M2.54 18.76 l0 -10.76 c0 -0.48 0.38 -0.64 0.66 -0.64 l4.6 0 c0.44 0 0.66 0.32 0.66 0.66 s-0.22 0.68 -0.66 0.68 l-3.94 0 l0 3.88 l3.14 0 c0.44 0 0.68 0.34 0.68 0.68 s-0.24 0.68 -0.68 0.68 l-3.14 0 l0 4.82 c0 0.42 -0.34 0.64 -0.66 0.64 c-0.34 0 -0.66 -0.22 -0.66 -0.64 z M17.9395 15.9 l0 2.86 c0 0.44 -0.34 0.64 -0.66 0.64 c-0.34 0 -0.66 -0.2 -0.66 -0.64 l0 -10.74 c0 -0.4 0.22 -0.66 0.66 -0.66 l2.7 0 c0.76 0 3.16 0.22 3.16 2.92 l0 2.5 c0 1.52 -0.56 2.48 -1.84 2.9 l1.36 2.74 c0.28 0.54 -0.14 0.98 -0.58 0.98 c-0.24 0 -0.54 -0.16 -0.7 -0.5 l-1.46 -3 l-1.98 0 z M21.819499999999998 12.780000000000001 l0 -2.5 c0 -0.48 -0.18 -1.58 -1.84 -1.58 l-2.04 0 l0 5.86 l1.86 0 c0.98 0 2.02 -0.22 2.02 -1.78 z M31.919 15.86 l0 -4.96 c0 -2.4 1.24 -3.68 3.64 -3.68 l0.52 0 c2.38 0 3.64 1.28 3.64 3.68 l0 4.96 c0 2.2 -1.46 3.64 -3.64 3.64 l-0.52 0 c-2.22 0 -3.64 -1.46 -3.64 -3.64 z M35.559 18.16 l0.52 0 c1.44 0 2.3 -0.9 2.3 -2.3 l0 -4.96 c0 -1.56 -0.76 -2.36 -2.3 -2.36 l-0.52 0 c-1.52 0 -2.36 0.82 -2.36 2.36 l0 4.96 c0 1.46 0.92 2.3 2.36 2.3 z M55.4185 8 l0 10.76 c0 0.42 -0.32 0.64 -0.64 0.64 c-0.24 0 -0.56 -0.18 -0.7 -0.44 c-1.5 -2.94 -2.62 -5.2 -4.12 -8.16 l0 7.96 c0 0.42 -0.32 0.64 -0.66 0.64 c-0.32 0 -0.66 -0.22 -0.66 -0.64 l0 -10.76 c0 -0.7 1 -0.74 1.22 -0.32 l4.22 8.34 l0 -8.02 c0 -0.42 0.32 -0.64 0.66 -0.64 s0.68 0.22 0.68 0.64 z M64.278 7.359999999999999 l6.04 0 c0.42 0 0.62 0.34 0.62 0.68 s-0.2 0.66 -0.62 0.66 l-2.28 0 l0 10.06 c0 0.42 -0.34 0.64 -0.68 0.64 s-0.66 -0.22 -0.66 -0.64 l0 -10.06 l-2.42 0 c-0.42 0 -0.62 -0.32 -0.62 -0.66 s0.2 -0.68 0.62 -0.68 z M79.2575 18.7 l0 -10.64 c0 -0.46 0.36 -0.7 0.7 -0.7 l4.6 0 c0.44 0 0.66 0.32 0.66 0.66 s-0.22 0.68 -0.66 0.68 l-3.96 0 l0 3.88 l3.14 0 c0.46 0 0.68 0.32 0.68 0.66 s-0.24 0.7 -0.68 0.7 l-3.14 0 l0 4.14 l3.96 0 c0.42 0 0.64 0.34 0.64 0.66 c0 0.34 -0.22 0.66 -0.64 0.66 l-4.6 0 c-0.34 0 -0.7 -0.12 -0.7 -0.7 z M100.71699999999998 8 l0 10.76 c0 0.42 -0.32 0.64 -0.64 0.64 c-0.24 0 -0.56 -0.18 -0.7 -0.44 c-1.5 -2.94 -2.62 -5.2 -4.12 -8.16 l0 7.96 c0 0.42 -0.32 0.64 -0.66 0.64 c-0.32 0 -0.66 -0.22 -0.66 -0.64 l0 -10.76 c0 -0.7 1 -0.74 1.22 -0.32 l4.22 8.34 l0 -8.02 c0 -0.42 0.32 -0.64 0.66 -0.64 s0.68 0.22 0.68 0.64 z M109.95649999999999 18.78 l0 -10.76 c0 -0.54 0.38 -0.66 0.66 -0.66 l3.2 0 c2.64 0 3.94 1.26 3.94 3.74 l0 5.12 c0 1.56 -1.22 3.2 -3.88 3.2 l-3.26 0 c-0.28 0 -0.66 -0.16 -0.66 -0.64 z M116.4365 16.22 l0 -5.12 c0 -1.64 -0.88 -2.4 -2.62 -2.4 l-2.54 0 l0 9.42 l2.6 0 c1.22 0 2.56 -0.66 2.56 -1.9 z M138.2955 18.78 l0 -10.76 c0 -0.54 0.38 -0.66 0.66 -0.66 l3.2 0 c2.64 0 3.94 1.26 3.94 3.74 l0 5.12 c0 1.56 -1.22 3.2 -3.88 3.2 l-3.26 0 c-0.28 0 -0.66 -0.16 -0.66 -0.64 z M144.7755 16.22 l0 -5.12 c0 -1.64 -0.88 -2.4 -2.62 -2.4 l-2.54 0 l0 9.42 l2.6 0 c1.22 0 2.56 -0.66 2.56 -1.9 z M154.975 18.7 l0 -10.64 c0 -0.46 0.36 -0.7 0.7 -0.7 l4.6 0 c0.44 0 0.66 0.32 0.66 0.66 s-0.22 0.68 -0.66 0.68 l-3.96 0 l0 3.88 l3.14 0 c0.46 0 0.68 0.32 0.68 0.66 s-0.24 0.7 -0.68 0.7 l-3.14 0 l0 4.14 l3.96 0 c0.42 0 0.64 0.34 0.64 0.66 c0 0.34 -0.22 0.66 -0.64 0.66 l-4.6 0 c-0.34 0 -0.7 -0.12 -0.7 -0.7 z M170.2345 7.800000000000001 l2.62 9.02 l2.74 -8.98 c0.26 -0.86 1.48 -0.52 1.24 0.32 l-3.2 10.68 c-0.1 0.36 -0.42 0.56 -0.76 0.56 s-0.7 -0.2 -0.8 -0.56 l-3.06 -10.66 c-0.26 -0.9 1 -1.16 1.22 -0.38 z M185.274 18.7 l0 -10.64 c0 -0.46 0.36 -0.7 0.7 -0.7 l4.6 0 c0.44 0 0.66 0.32 0.66 0.66 s-0.22 0.68 -0.66 0.68 l-3.96 0 l0 3.88 l3.14 0 c0.46 0 0.68 0.32 0.68 0.66 s-0.24 0.7 -0.68 0.7 l-3.14 0 l0 4.14 l3.96 0 c0.42 0 0.64 0.34 0.64 0.66 c0 0.34 -0.22 0.66 -0.64 0.66 l-4.6 0 c-0.34 0 -0.7 -0.12 -0.7 -0.7 z M199.9535 18.76 l0 -10.76 c0 -0.42 0.32 -0.64 0.64 -0.64 s0.66 0.22 0.66 0.64 l0 10.06 l3.98 0 c0.44 0 0.68 0.34 0.68 0.68 s-0.24 0.66 -0.68 0.66 l-4.62 0 c-0.4 0 -0.66 -0.32 -0.66 -0.64 z M213.793 15.86 l0 -4.96 c0 -2.4 1.24 -3.68 3.64 -3.68 l0.52 0 c2.38 0 3.64 1.28 3.64 3.68 l0 4.96 c0 2.2 -1.46 3.64 -3.64 3.64 l-0.52 0 c-2.22 0 -3.64 -1.46 -3.64 -3.64 z M217.433 18.16 l0.52 0 c1.44 0 2.3 -0.9 2.3 -2.3 l0 -4.96 c0 -1.56 -0.76 -2.36 -2.3 -2.36 l-0.52 0 c-1.52 0 -2.36 0.82 -2.36 2.36 l0 4.96 c0 1.46 0.92 2.3 2.36 2.3 z M237.0525 10.28 l0 2.5 c0 2.38 -1.24 3.14 -3.34 3.14 l-1.86 0 l0 2.84 c0 0.42 -0.34 0.64 -0.66 0.64 c-0.34 0 -0.66 -0.22 -0.66 -0.64 l0 -10.74 c0 -0.38 0.32 -0.66 0.66 -0.66 l2.7 0 c1.1 0 3.16 0.22 3.16 2.92 z M233.89249999999998 8.7 l-2.04 0 l0 5.86 l1.86 0 c0.98 0 2.04 -0.24 2.02 -1.8 l-0.02 -2.48 c0 -0.48 -0.08 -1.58 -1.82 -1.58 z M245.272 18.7 l0 -10.64 c0 -0.46 0.36 -0.7 0.7 -0.7 l4.6 0 c0.44 0 0.66 0.32 0.66 0.66 s-0.22 0.68 -0.66 0.68 l-3.96 0 l0 3.88 l3.14 0 c0.46 0 0.68 0.32 0.68 0.66 s-0.24 0.7 -0.68 0.7 l-3.14 0 l0 4.14 l3.96 0 c0.42 0 0.64 0.34 0.64 0.66 c0 0.34 -0.22 0.66 -0.64 0.66 l-4.6 0 c-0.34 0 -0.7 -0.12 -0.7 -0.7 z M261.2915 15.9 l0 2.86 c0 0.44 -0.34 0.64 -0.66 0.64 c-0.34 0 -0.66 -0.2 -0.66 -0.64 l0 -10.74 c0 -0.4 0.22 -0.66 0.66 -0.66 l2.7 0 c0.76 0 3.16 0.22 3.16 2.92 l0 2.5 c0 1.52 -0.56 2.48 -1.84 2.9 l1.36 2.74 c0.28 0.54 -0.14 0.98 -0.58 0.98 c-0.24 0 -0.54 -0.16 -0.7 -0.5 l-1.46 -3 l-1.98 0 z M265.1715 12.780000000000001 l0 -2.5 c0 -0.48 -0.18 -1.58 -1.84 -1.58 l-2.04 0 l0 5.86 l1.86 0 c0.98 0 2.02 -0.22 2.02 -1.78 z"/>
  </g>
</svg>