<?xml version="1.0" encoding="utf-8"?>
<svg width="170" height="161.73373435746507" viewBox="0 0 170 161.73373435746507" class="css-1j8o68f" xmlns="http://www.w3.org/2000/svg">
  <g id="SvgjsG1766" featurekey="aMgJeN-0" transform="matrix(1.6675003829327508,0,0,1.6675003829327508,1.6249808533624588,-23.69518050508448)" fill="#aacfd0">
    <g xmlns="http://www.w3.org/2000/svg">
      <path d="M69.832,70.521h-9.088l4.112-11.08c0.165-0.445,0.091-0.907-0.131-1.287l1.881-5.068c0.183-0.494-0.068-1.041-0.562-1.224   c-0.109-0.04-0.221-0.06-0.331-0.06c-0.387,0-0.75,0.237-0.893,0.62l-1.874,5.049c-0.422,0.141-0.78,0.461-0.947,0.911   l-4.506,12.139h-8.801l-4.506-12.139c-0.167-0.45-0.525-0.769-0.947-0.911l-1.874-5.049c-0.142-0.384-0.506-0.62-0.893-0.62   c-0.11,0-0.222,0.019-0.331,0.06c-0.493,0.183-0.745,0.73-0.562,1.224l1.881,5.068c-0.222,0.38-0.297,0.842-0.131,1.287   l4.112,11.08H21.538c-0.841,0-1.523,0.681-1.523,1.523v12.222c0,0.842,0.682,1.523,1.523,1.523h48.293   c0.841,0,1.523-0.681,1.523-1.523V72.045C71.355,71.203,70.673,70.521,69.832,70.521z M68.308,82.743H23.062v-9.176h45.247V82.743z   "/>
      <path d="M79.706,25.147C72.653,18.094,63.263,14.21,53.263,14.21s-19.39,3.884-26.443,10.937c-0.372,0.372-0.372,0.976,0,1.348   c0.372,0.372,0.974,0.372,1.346,0c6.693-6.694,15.606-10.38,25.097-10.38S71.667,19.8,78.36,26.495   c0.186,0.186,0.429,0.278,0.673,0.278c0.244,0,0.487-0.092,0.673-0.278C80.078,26.123,80.078,25.519,79.706,25.147z"/>
      <path d="M35.402,33.727c-0.372,0.372-0.372,0.976,0,1.348c0.372,0.372,0.974,0.372,1.346,0c9.109-9.107,23.924-9.106,33.03,0   c0.186,0.186,0.429,0.278,0.673,0.278c0.244,0,0.487-0.092,0.673-0.278c0.372-0.372,0.372-0.976,0-1.348   C61.278,23.879,45.251,23.881,35.402,33.727z"/>
      <path d="M44.657,43.935c0.244,0,0.487-0.092,0.673-0.278c4.375-4.377,11.493-4.374,15.867,0c0.372,0.372,0.974,0.372,1.346,0   c0.372-0.372,0.372-0.976,0-1.348c-5.116-5.113-13.442-5.116-18.559,0c-0.372,0.372-0.372,0.976,0,1.348   C44.17,43.843,44.413,43.935,44.657,43.935z"/>
    </g>
  </g>
  <g id="SvgjsG1767" featurekey="8L6ael-0" transform="matrix(1.514960361389147,0,0,1.514960361389147,-10.031831621196815,131.4345300192397)" fill="#34495e">
    <path d="M17.368000000000002 12.42 q0.86 0.54 1.31 1.32 t0.45 1.74 q0 2.26 -1.72 3.46 q-1.16 0.84 -3.14 1.06 l-0.08 0 q-0.28 0 -0.46 -0.18 q-0.24 -0.22 -0.24 -0.52 l0 -1.44 q0 -0.26 0.18 -0.46 t0.44 -0.24 q0.94 -0.1 1.46 -0.44 q0.4 -0.24 0.54 -0.62 q0.08 -0.22 0.08 -0.56 q0 -0.22 -0.08 -0.38 t-0.28 -0.3 q-0.58 -0.4 -1.5 -0.68 l-0.32 -0.1 q-1 -0.28 -1.84 -0.46 q-0.18 -0.04 -0.58 -0.14 l-0.22 -0.06 q-0.72 -0.18 -1.52 -0.5 q-1.18 -0.5 -1.94 -1.26 q-0.88 -0.88 -0.88 -2.32 q0 -1.98 1.52 -3.22 q1.04 -0.88 2.92 -1.12 q0.32 -0.04 0.55 0.18 t0.23 0.52 l0 1.44 q0 0.26 -0.16 0.46 t-0.41 0.23 t-0.51 0.11 q-0.58 0.22 -0.82 0.43 t-0.34 0.43 q-0.1 0.34 -0.1 0.64 q0 0.16 0.18 0.34 q0.28 0.28 0.82 0.5 q0.24 0.1 0.84 0.3 l2.5 0.62 l0.12 0.04 q0.94 0.26 1.36 0.4 q0.94 0.32 1.64 0.78 z M14.028 7.9 q-0.24 -0.06 -0.39 -0.25 t-0.15 -0.45 l0 -1.46 q0 -0.32 0.26 -0.54 q0.1 -0.1 0.26 -0.13 t0.3 -0.01 q1.76 0.28 2.86 1.2 q1.5 1.24 1.6 3.16 q0.02 0.28 -0.19 0.51 t-0.51 0.23 l-1.56 0 q-0.26 0 -0.46 -0.18 t-0.22 -0.44 q-0.08 -0.52 -0.34 -0.86 q-0.42 -0.5 -1.3 -0.76 q-0.06 0 -0.08 -0.02 l-0.08 0 z M11.687999999999999 17.08 q0.24 0.04 0.4 0.24 t0.16 0.44 l0 1.48 q0 0.32 -0.24 0.54 q-0.2 0.16 -0.46 0.16 l-0.1 0 q-1.86 -0.28 -3.06 -1.22 q-1.56 -1.24 -1.76 -3.46 q-0.04 -0.32 0.18 -0.55 t0.52 -0.23 l1.58 0 q0.28 0 0.48 0.19 t0.22 0.47 q0.06 1 0.98 1.54 q0.42 0.24 1.1 0.4 z M23.916 10.12 q-0.28 0 -0.49 -0.21 t-0.21 -0.49 l0 -3.72 q0 -0.28 0.21 -0.49 t0.49 -0.21 l1.52 0 q0.3 0 0.5 0.21 t0.2 0.49 l0 3.72 q0 0.28 -0.2 0.49 t-0.5 0.21 l-1.52 0 z M34.775999999999996 5 q0.28 0 0.49 0.21 t0.21 0.49 l0 13.44 q0 0.28 -0.21 0.49 t-0.49 0.21 l-1.52 0 q-0.3 0 -0.5 -0.21 t-0.2 -0.49 l0 -5.28 l-6.42 0 l0 5.28 q0 0.28 -0.2 0.49 t-0.5 0.21 l-1.52 0 q-0.28 0 -0.49 -0.21 t-0.21 -0.49 l0 -7.48 q0 -0.28 0.21 -0.49 t0.49 -0.21 l8.64 0 l0 -5.26 q0 -0.28 0.2 -0.49 t0.5 -0.21 l1.52 0 z M53.644000000000005 18.86 q0.14 0.32 -0.07 0.65 t-0.57 0.33 l-13.32 0 q-0.18 0 -0.34 -0.09 t-0.24 -0.23 q-0.22 -0.32 -0.06 -0.66 l0.62 -1.46 q0.08 -0.2 0.26 -0.32 t0.38 -0.12 l9.32 0 l-3.28 -7.84 l-2.68 6.4 q-0.08 0.2 -0.25 0.31 t-0.39 0.11 l-1.68 0 q-0.38 0 -0.6 -0.32 q-0.08 -0.14 -0.1 -0.32 t0.04 -0.34 l4.06 -9.52 q0.08 -0.2 0.25 -0.32 t0.39 -0.12 l1.92 0 q0.22 0 0.39 0.12 t0.25 0.32 z M57.892 10.12 q-0.28 0 -0.49 -0.21 t-0.21 -0.49 l0 -3.72 q0 -0.28 0.21 -0.49 t0.49 -0.21 l1.52 0 q0.3 0 0.5 0.21 t0.2 0.49 l0 3.72 q0 0.28 -0.2 0.49 t-0.5 0.21 l-1.52 0 z M68.75200000000001 5 q0.28 0 0.49 0.21 t0.21 0.49 l0 13.44 q0 0.28 -0.21 0.49 t-0.49 0.21 l-1.52 0 q-0.3 0 -0.5 -0.21 t-0.2 -0.49 l0 -5.28 l-6.42 0 l0 5.28 q0 0.28 -0.2 0.49 t-0.5 0.21 l-1.52 0 q-0.28 0 -0.49 -0.21 t-0.21 -0.49 l0 -7.48 q0 -0.28 0.21 -0.49 t0.49 -0.21 l8.64 0 l0 -5.26 q0 -0.28 0.2 -0.49 t0.5 -0.21 l1.52 0 z M85.02000000000001 12.18 q1.04 0.64 1.52 1.84 q0.28 0.64 0.28 1.58 q0 1.46 -0.78 2.45 t-2.28 1.47 q-0.94 0.32 -2.22 0.32 l-6.38 0 q-0.28 0 -0.49 -0.21 t-0.21 -0.49 l0 -1.44 q0 -0.3 0.21 -0.51 t0.49 -0.21 l6.54 0 q1.16 0 1.72 -0.42 q0.48 -0.4 0.48 -1.09 t-0.5 -1.13 q-0.62 -0.54 -1.86 -0.54 l-6.38 0 q-0.28 0 -0.49 -0.21 t-0.21 -0.51 l0 -1.38 q0 -0.28 0.21 -0.49 t0.49 -0.21 l6.02 0 q0.86 0 1.34 -0.3 q0.34 -0.2 0.54 -0.58 q0.14 -0.28 0.14 -0.65 t-0.1 -0.67 q-0.08 -0.24 -0.28 -0.44 q-0.44 -0.5 -1.46 -0.5 l-6.2 0 q-0.28 0 -0.49 -0.21 t-0.21 -0.51 l0 -1.44 q0 -0.28 0.21 -0.49 t0.49 -0.21 l6.02 0 q2.48 0 3.82 1.4 q1.14 1.14 1.14 2.86 q0 1.84 -1.12 2.92 z M104.188 18.86 q0.14 0.32 -0.07 0.65 t-0.57 0.33 l-13.32 0 q-0.18 0 -0.34 -0.09 t-0.24 -0.23 q-0.22 -0.32 -0.06 -0.66 l0.62 -1.46 q0.08 -0.2 0.26 -0.32 t0.38 -0.12 l9.32 0 l-3.28 -7.84 l-2.68 6.4 q-0.08 0.2 -0.25 0.31 t-0.39 0.11 l-1.68 0 q-0.38 0 -0.6 -0.32 q-0.08 -0.14 -0.1 -0.32 t0.04 -0.34 l4.06 -9.52 q0.08 -0.2 0.25 -0.32 t0.39 -0.12 l1.92 0 q0.22 0 0.39 0.12 t0.25 0.32 z M118.136 17.12 q0.28 0 0.49 0.21 t0.21 0.49 l0 1.44 q0 0.28 -0.21 0.49 t-0.49 0.21 l-10.74 0 q-0.28 0 -0.49 -0.21 t-0.21 -0.49 l0 -1.46 q0 -0.24 0.16 -0.44 l2.86 -3.46 q0.22 -0.26 0.54 -0.26 l1.92 0 q0.2 0 0.38 0.11 t0.27 0.3 t0.06 0.4 t-0.17 0.35 l-1.92 2.32 l7.34 0 z M118.136 5 q0.28 0 0.49 0.21 t0.21 0.51 l0 1.46 q0 0.26 -0.16 0.46 l-2.86 3.42 q-0.2 0.26 -0.54 0.26 l-1.9 0 q-0.2 0 -0.38 -0.11 t-0.28 -0.29 q-0.16 -0.44 0.1 -0.76 l1.92 -2.3 l-7.2 0 q-0.3 0 -0.51 -0.21 t-0.21 -0.51 l0 -1.42 q0 -0.3 0.21 -0.51 t0.51 -0.21 l10.6 0 z"/>
  </g>
</svg>